<svg width="40" height="40" viewBox="0 0 40 40" fill="none" xmlns="http://www.w3.org/2000/svg">
<path d="M36.6666 13.6034V13.725C36.6666 15.1584 36.6666 15.8767 36.3216 16.4634C35.9766 17.05 35.3483 17.3984 34.095 18.0967L32.7733 18.83C33.6833 15.75 33.9883 12.44 34.1 9.61003L34.1166 9.2417L34.12 9.15503C35.205 9.5317 35.815 9.81336 36.195 10.34C36.6666 10.995 36.6666 11.865 36.6666 13.6034ZM3.33331 13.6034V13.725C3.33331 15.1584 3.33331 15.8767 3.67831 16.4634C4.02331 17.05 4.65165 17.3984 5.90498 18.0967L7.22831 18.83C6.31665 15.75 6.01165 12.44 5.89998 9.61003L5.88331 9.2417L5.88165 9.15503C4.79498 9.5317 4.18498 9.81336 3.80498 10.34C3.33331 10.995 3.33331 11.8667 3.33331 13.6034Z" fill="#FFFF5A"/>
<path fill-rule="evenodd" clip-rule="evenodd" d="M20 3.33339C22.9733 3.33339 25.4216 3.59505 27.295 3.91172C29.1933 4.23172 30.1416 4.39172 30.935 5.36839C31.7283 6.34505 31.685 7.40005 31.6016 9.51005C31.315 16.7584 29.7516 25.81 21.25 26.6101V32.5001H23.6333C24.0185 32.5003 24.3916 32.6339 24.6894 32.8782C24.9872 33.1225 25.1912 33.4624 25.2666 33.8401L25.5833 35.4167H30C30.3315 35.4167 30.6494 35.5484 30.8839 35.7828C31.1183 36.0173 31.25 36.3352 31.25 36.6667C31.25 36.9982 31.1183 37.3162 30.8839 37.5506C30.6494 37.785 30.3315 37.9167 30 37.9167H9.99997C9.66845 37.9167 9.35051 37.785 9.11609 37.5506C8.88167 37.3162 8.74997 36.9982 8.74997 36.6667C8.74997 36.3352 8.88167 36.0173 9.11609 35.7828C9.35051 35.5484 9.66845 35.4167 9.99997 35.4167H14.4166L14.7333 33.8401C14.8088 33.4624 15.0128 33.1225 15.3105 32.8782C15.6083 32.6339 15.9815 32.5003 16.3666 32.5001H18.75V26.6101C10.25 25.81 8.68664 16.7567 8.39997 9.51005C8.31497 7.40005 8.27331 6.34338 9.06664 5.36839C9.85831 4.39172 10.8066 4.23172 12.705 3.91172C15.1164 3.51671 17.5565 3.32327 20 3.33339ZM21.5866 10.3317L21.4233 10.0384C20.79 8.90005 20.4733 8.33338 20 8.33338C19.5266 8.33338 19.21 8.90005 18.5766 10.0384L18.4133 10.3317C18.2333 10.6551 18.1433 10.8151 18.0033 10.9217C17.8616 11.0284 17.6866 11.0684 17.3366 11.1467L17.02 11.2201C15.79 11.4984 15.175 11.6367 15.0283 12.1067C14.8816 12.5767 15.3016 13.0684 16.14 14.0484L16.3566 14.3017C16.595 14.5801 16.715 14.7184 16.7683 14.8917C16.8216 15.0651 16.8033 15.2501 16.7683 15.6217L16.735 15.9601C16.6083 17.2684 16.545 17.9234 16.9266 18.2134C17.31 18.5034 17.8866 18.2384 19.0383 17.7084L19.335 17.5717C19.6633 17.4217 19.8266 17.3467 20 17.3467C20.1733 17.3467 20.3366 17.4217 20.665 17.5717L20.9616 17.7084C22.1133 18.2401 22.69 18.5034 23.0733 18.2134C23.4566 17.9234 23.3916 17.2684 23.265 15.9601L23.2316 15.6217C23.1966 15.2501 23.1783 15.0651 23.2316 14.8917C23.285 14.7184 23.405 14.5801 23.6433 14.3017L23.86 14.0484C24.6983 13.0684 25.1183 12.5784 24.9716 12.1067C24.825 11.6367 24.21 11.4984 22.98 11.2201L22.6633 11.1467C22.3133 11.0684 22.1383 11.0301 21.9966 10.9217C21.8566 10.8151 21.7666 10.6551 21.5866 10.3317Z" fill="#FFFF5A"/>
</svg>
