<svg width="32" height="32" viewBox="0 0 32 32" fill="none" xmlns="http://www.w3.org/2000/svg">
<path d="M0 12C0 5.37258 5.37258 0 12 0H20C26.6274 0 32 5.37258 32 12V20C32 26.6274 26.6274 32 20 32H12C5.37258 32 0 26.6274 0 20V12Z" fill="url(#paint0_radial_3643_1107)"/>
<path d="M16.3887 13.1591L20.8391 17.5592C21.0536 17.7713 21.0536 18.1155 20.8391 18.3276L20.3199 18.8409C20.1056 19.0528 19.7584 19.053 19.5436 18.8418L16.0001 15.3545L12.4564 18.8415C12.2415 19.053 11.8944 19.0526 11.68 18.8406L11.1609 18.3274C10.9464 18.1152 10.9464 17.7711 11.1609 17.559L15.6115 13.1591C15.8261 12.947 16.1741 12.947 16.3887 13.1591Z" fill="white"/>
<defs>
<radialGradient id="paint0_radial_3643_1107" cx="0" cy="0" r="1" gradientUnits="userSpaceOnUse" gradientTransform="translate(29.6667 73.75) rotate(-104.49) scale(91.9239 22.0579)">
<stop stop-color="#3019B0"/>
<stop offset="1" stop-color="#0B72DF"/>
</radialGradient>
</defs>
</svg>
